
<svg width="120" height="31" viewBox="0 0 120 31" fill="none" xmlns="http://www.w3.org/2000/svg">
<path d="M0 0.7037V30.2947H22.9647V22.7121H9.42617V0.7037H0Z" fill="#222222"/>
<path d="M54.5456 18.8558C54.5456 27.063 49.9619 30.9985 40.622 30.9985C31.2837 30.9985 26.6537 27.063 26.6537 18.8558V0.7037H36.0799V16.8253C36.0799 19.8509 36.0799 23.6205 40.6635 23.6205C45.1194 23.6205 45.1194 19.8493 45.1194 16.8253V0.7037H54.544V18.8558H54.5456Z" fill="#222222"/>
<path d="M68.8398 20.3499C68.8398 21.0955 68.9692 21.7573 69.1833 22.2967C69.8687 24.0792 71.9265 24.4512 73.6823 24.4512C75.2241 24.4512 77.5822 23.9552 77.5822 21.7573C77.5822 20.2244 76.253 19.8105 70.9807 18.3597C66.1398 17.0329 60.6119 15.7495 60.6119 9.7805C60.6119 2.9419 66.6526 0 72.9522 0C79.5905 0 85.4618 2.4459 85.7223 9.6565H76.8073C76.9783 8.5374 76.459 7.7903 75.6938 7.29585C74.9253 6.75645 73.8533 6.54875 72.9107 6.54875C71.6229 6.54875 69.5236 6.8789 69.5236 8.5374C69.6946 10.6531 74.0674 11.1073 78.3938 12.2682C82.7219 13.4276 87.0084 15.376 87.0084 20.8056C87.0084 28.5138 79.6783 31 72.8675 31C69.3974 31 59.5015 29.7972 59.4137 20.3499H68.8398Z" fill="#222222"/>
<path d="M110.575 0.7037V10.9817H101.745V0.7037H92.319V30.2947H101.745V18.5659H110.575V30.2947H120V0.7037H110.575Z" fill="#222222"/>
</svg>
